<svg width="479" height="59" viewBox="0 0 479 59" fill="none" xmlns="http://www.w3.org/2000/svg">
<path d="M31.57 29.5C30.1367 27.7711 28.3147 26.8534 26.445 26.9188H14.4269C13.8789 26.9387 13.3338 26.7993 12.8242 26.5089C12.3145 26.2185 11.8508 25.7832 11.4609 25.2289C11.0709 24.6746 10.7626 24.0127 10.5546 23.283C10.3465 22.5532 10.2429 21.7706 10.25 20.9819C10.2366 20.6749 10.2366 20.367 10.25 20.06C10.4116 18.6507 10.9251 17.3747 11.6942 16.4716C12.4633 15.5686 13.435 15.1006 14.4269 15.1556H26.2656C27.2313 15.1544 28.166 15.6468 28.9028 16.5451C29.6397 17.4433 30.1308 18.689 30.2888 20.06H34.1325C33.9716 17.2167 33.073 14.5647 31.6154 12.6311C30.1579 10.6976 28.248 9.62423 26.2656 9.62438H22.2169V1.14313H19.0138V9.62438H14.4269C12.4445 9.62423 10.5346 10.6976 9.07706 12.6311C7.61948 14.5647 6.72091 17.2167 6.56 20.06C6.54722 20.367 6.54722 20.6749 6.56 20.9819C6.56 22.4685 6.76348 23.9406 7.15883 25.3141C7.55418 26.6876 8.13365 27.9356 8.86416 28.9868C10.3395 31.1098 12.3405 32.3025 14.4269 32.3025H26.5731C27.1167 32.2828 27.6576 32.4199 28.1638 32.7057C28.67 32.9916 29.1314 33.4203 29.5206 33.9667C29.9099 34.5131 30.2192 35.1662 30.4304 35.8873C30.6415 36.6084 30.7502 37.3831 30.75 38.1656C30.7766 38.5827 30.7766 39.0023 30.75 39.4194C30.5465 40.7168 30.0426 41.8762 29.3208 42.7071C28.5991 43.538 27.7024 43.991 26.7781 43.9919H14.7344C13.8101 43.991 12.9135 43.538 12.1917 42.7071C11.4699 41.8762 10.966 40.7168 10.7625 39.4194H6.89313C7.11334 42.19 8.03421 44.7472 9.48027 46.6037C10.9263 48.4602 12.7965 49.4862 14.7344 49.4863H19.0138V57.8569H22.2169V49.4863H26.5731C28.511 49.4862 30.3812 48.4602 31.8272 46.6037C33.2733 44.7472 34.1942 42.19 34.4144 39.4194V38.1656C34.4113 36.5093 34.1549 34.8743 33.6633 33.3767C33.1717 31.879 32.457 30.5555 31.57 29.5Z" fill="#6366F1"/>
<path d="M53.0625 54.5V49.375L57.9688 48.4375V15.0938L53.0625 14.1562V9H57.9688H74.5625C78 9 80.9479 9.60417 83.4062 10.8125C85.8854 12 87.7917 13.6771 89.125 15.8438C90.4583 17.9896 91.125 20.4896 91.125 23.3438C91.125 26.2188 90.4583 28.7292 89.125 30.875C87.7917 33 85.8854 34.6562 83.4062 35.8438C80.9479 37.0312 78 37.625 74.5625 37.625H66.4688V48.4375L71.375 49.375V54.5H53.0625ZM66.4688 31.0625H74.5625C77.2292 31.0625 79.2396 30.3438 80.5938 28.9062C81.9479 27.4688 82.625 25.6354 82.625 23.4062C82.625 21.1562 81.9479 19.2917 80.5938 17.8125C79.2396 16.3125 77.2292 15.5625 74.5625 15.5625H66.4688V31.0625ZM94.9688 54.5V49.375L99.5 48.4375V26.7812L94.625 25.8438V20.6875H107.375L107.75 24.9062L107.812 25.625C108.667 23.8125 109.729 22.4375 111 21.5C112.271 20.5417 113.771 20.0625 115.5 20.0625C116.062 20.0625 116.667 20.1146 117.312 20.2188C117.979 20.3021 118.542 20.4167 119 20.5625L118.031 28.4062L113.562 28.1562C112.208 28.0938 111.094 28.3438 110.219 28.9062C109.365 29.4688 108.625 30.2708 108 31.3125V48.4375L112.531 49.375V54.5H94.9688ZM122 54.5V49.375L126.531 48.4375V26.7812L121.625 25.8438V20.6875H135.031V48.4375L139.562 49.375V54.5H122ZM126.219 13.2812V5.75H135.031V13.2812H126.219ZM157.219 55.1562C154.74 55.1562 152.427 54.9271 150.281 54.4688C148.156 53.9896 146.073 53.2917 144.031 52.375L143.938 43.125H149.938L151.125 48C151.938 48.375 152.792 48.6667 153.688 48.875C154.583 49.0833 155.594 49.1875 156.719 49.1875C158.865 49.1875 160.375 48.8333 161.25 48.125C162.146 47.3958 162.594 46.4896 162.594 45.4062C162.594 44.3646 162.125 43.4688 161.188 42.7188C160.25 41.9479 158.438 41.2812 155.75 40.7188C151.729 39.8646 148.771 38.5833 146.875 36.875C144.979 35.1458 144.031 32.9375 144.031 30.25C144.031 28.375 144.51 26.6771 145.469 25.1562C146.448 23.6354 147.906 22.4167 149.844 21.5C151.781 20.5625 154.208 20.0938 157.125 20.0938C159.688 20.0938 161.99 20.3542 164.031 20.875C166.094 21.3958 167.833 22.0625 169.25 22.875L169.406 31.8125H163.438L162.469 27.375C161.865 26.9375 161.156 26.6042 160.344 26.375C159.531 26.125 158.615 26 157.594 26C155.927 26 154.625 26.3542 153.688 27.0625C152.771 27.7708 152.312 28.6667 152.312 29.75C152.312 30.375 152.469 30.9479 152.781 31.4688C153.094 31.9896 153.698 32.4792 154.594 32.9375C155.51 33.375 156.844 33.7917 158.594 34.1875C162.885 35.1667 165.979 36.4688 167.875 38.0938C169.792 39.7188 170.75 41.9271 170.75 44.7188C170.75 47.8021 169.625 50.3125 167.375 52.25C165.146 54.1875 161.76 55.1562 157.219 55.1562ZM174.844 54.5V49.375L179.406 48.4375V26.7812L174.5 25.8438V20.6875H187.25L187.625 25.125C188.729 23.5208 190.104 22.2812 191.75 21.4062C193.396 20.5104 195.302 20.0625 197.469 20.0625C199.656 20.0625 201.531 20.5521 203.094 21.5312C204.656 22.5104 205.833 23.9792 206.625 25.9375C207.667 24.1042 209.031 22.6667 210.719 21.625C212.406 20.5833 214.375 20.0625 216.625 20.0625C220 20.0625 222.656 21.2083 224.594 23.5C226.531 25.7917 227.5 29.2708 227.5 33.9375V48.4375L232.062 49.375V54.5H214.812V49.375L219 48.4375V33.9062C219 31.2188 218.552 29.3542 217.656 28.3125C216.781 27.25 215.479 26.7188 213.75 26.7188C212.188 26.7188 210.885 27.1979 209.844 28.1562C208.802 29.1146 208.083 30.3438 207.688 31.8438V48.4375L211.656 49.375V54.5H195.25V49.375L199.219 48.4375V33.9062C199.219 31.3229 198.771 29.4792 197.875 28.375C196.979 27.2708 195.667 26.7188 193.938 26.7188C192.521 26.7188 191.312 27.0104 190.312 27.5938C189.312 28.1562 188.5 28.9688 187.875 30.0312V48.4375L192.062 49.375V54.5H174.844ZM235.312 54.5V49.375L240.219 48.4375V15.0938L235.312 14.1562V9H271.125V21.125H264.562L264.094 15.5625H248.719V28.7812H264.812V35.3438H248.719V48.4375L253.625 49.375V54.5H235.312ZM274.688 54.5V49.375L279.219 48.4375V26.7812L274.312 25.8438V20.6875H287.719V48.4375L292.25 49.375V54.5H274.688ZM278.906 13.2812V5.75H287.719V13.2812H278.906ZM295.281 54.5V49.375L299.812 48.4375V26.7812L294.938 25.8438V20.6875H307.688L308.094 25.5625C309.219 23.8333 310.615 22.4896 312.281 21.5312C313.969 20.5521 315.875 20.0625 318 20.0625C321.396 20.0625 324.052 21.1354 325.969 23.2812C327.906 25.4062 328.875 28.75 328.875 33.3125V48.4375L333.406 49.375V54.5H316.188V49.375L320.344 48.4375V33.375C320.344 30.9583 319.865 29.25 318.906 28.25C317.948 27.2292 316.521 26.7188 314.625 26.7188C313.208 26.7188 311.969 27.0312 310.906 27.6562C309.865 28.2604 309 29.125 308.312 30.25V48.4375L312.312 49.375V54.5H295.281ZM347.938 55.1562C344.542 55.1562 341.865 54.2708 339.906 52.5C337.969 50.7083 337 48.2604 337 45.1562C337 41.9688 338.292 39.3854 340.875 37.4062C343.479 35.4062 347.229 34.4062 352.125 34.4062H356.938V31.75C356.938 30.0417 356.427 28.6667 355.406 27.625C354.406 26.5833 352.927 26.0625 350.969 26.0625C349.906 26.0625 348.948 26.1979 348.094 26.4688C347.26 26.7188 346.51 27.0833 345.844 27.5625L345.125 32.0938H338.938L338.875 23.5312C340.583 22.4896 342.458 21.6562 344.5 21.0312C346.562 20.3854 348.854 20.0625 351.375 20.0625C355.729 20.0625 359.156 21.0833 361.656 23.125C364.177 25.1458 365.438 28.0521 365.438 31.8438V46.25C365.438 46.7083 365.438 47.1562 365.438 47.5938C365.458 48.0312 365.5 48.4583 365.562 48.875L369.031 49.375V54.5H358.25C358.021 53.8542 357.802 53.1979 357.594 52.5312C357.406 51.8438 357.271 51.1562 357.188 50.4688C356.083 51.8646 354.76 53 353.219 53.875C351.698 54.7292 349.938 55.1562 347.938 55.1562ZM350.031 48.75C351.469 48.75 352.812 48.4167 354.062 47.75C355.333 47.0833 356.292 46.2396 356.938 45.2188V39.7188H352.094C349.906 39.7188 348.25 40.2292 347.125 41.25C346.021 42.25 345.469 43.4375 345.469 44.8125C345.469 46.0625 345.865 47.0312 346.656 47.7188C347.448 48.4062 348.573 48.75 350.031 48.75ZM372.344 54.5V49.375L376.875 48.4375V26.7812L372 25.8438V20.6875H384.75L385.156 25.5625C386.281 23.8333 387.677 22.4896 389.344 21.5312C391.031 20.5521 392.938 20.0625 395.062 20.0625C398.458 20.0625 401.115 21.1354 403.031 23.2812C404.969 25.4062 405.938 28.75 405.938 33.3125V48.4375L410.469 49.375V54.5H393.25V49.375L397.406 48.4375V33.375C397.406 30.9583 396.927 29.25 395.969 28.25C395.01 27.2292 393.583 26.7188 391.688 26.7188C390.271 26.7188 389.031 27.0312 387.969 27.6562C386.927 28.2604 386.062 29.125 385.375 30.25V48.4375L389.375 49.375V54.5H372.344ZM429.156 55.1562C425.948 55.1562 423.167 54.4375 420.812 53C418.479 51.5417 416.677 49.5312 415.406 46.9688C414.135 44.4062 413.5 41.4583 413.5 38.125V37.0938C413.5 33.8021 414.135 30.875 415.406 28.3125C416.698 25.75 418.51 23.7396 420.844 22.2812C423.177 20.8021 425.927 20.0625 429.094 20.0625C432.073 20.0625 434.646 20.5312 436.812 21.4688C439 22.4062 440.771 23.5312 442.125 24.8438V34.2188H435.688L434.5 28.1875C433.958 27.6458 433.271 27.2083 432.438 26.875C431.604 26.5417 430.719 26.375 429.781 26.375C428.094 26.375 426.667 26.8229 425.5 27.7188C424.354 28.5938 423.479 29.8333 422.875 31.4375C422.292 33.0208 422 34.9062 422 37.0938V38.125C422 40.4792 422.312 42.4375 422.938 44C423.562 45.5417 424.417 46.6979 425.5 47.4688C426.604 48.2396 427.833 48.625 429.188 48.625C430.896 48.625 432.281 48.1771 433.344 47.2812C434.406 46.3646 435.115 45.0833 435.469 43.4375H442.75L442.844 43.625C442.552 45.9167 441.875 47.9375 440.812 49.6875C439.771 51.4167 438.292 52.7604 436.375 53.7188C434.479 54.6771 432.073 55.1562 429.156 55.1562ZM463.344 55.1562C460.135 55.1562 457.333 54.4479 454.938 53.0312C452.562 51.5938 450.719 49.625 449.406 47.125C448.094 44.6042 447.438 41.7292 447.438 38.5V37.2188C447.438 33.9062 448.062 30.9583 449.312 28.375C450.583 25.7917 452.354 23.7604 454.625 22.2812C456.896 20.8021 459.521 20.0625 462.5 20.0625C465.562 20.0625 468.135 20.6771 470.219 21.9062C472.302 23.1146 473.875 24.8542 474.938 27.125C476 29.3958 476.531 32.125 476.531 35.3125V40.0312H456.25L456.188 40.2188C456.271 41.8438 456.635 43.2917 457.281 44.5625C457.927 45.8125 458.833 46.8021 460 47.5312C461.167 48.2604 462.583 48.625 464.25 48.625C466.021 48.625 467.635 48.3958 469.094 47.9375C470.573 47.4792 471.979 46.8021 473.312 45.9062L475.75 51.1875C474.396 52.3125 472.677 53.2604 470.594 54.0312C468.51 54.7812 466.094 55.1562 463.344 55.1562ZM456.344 34.25H468.531V33.4375C468.531 32.0208 468.323 30.7917 467.906 29.75C467.49 28.6875 466.844 27.8646 465.969 27.2812C465.115 26.6979 464 26.4062 462.625 26.4062C461.375 26.4062 460.302 26.75 459.406 27.4375C458.51 28.1042 457.802 29.0208 457.281 30.1875C456.76 31.3333 456.417 32.6354 456.25 34.0938L456.344 34.25Z" fill="#6366F1" fill-opacity="0.99"/>
</svg>
